<xml><svg xmlns="http://www.w3.org/2000/svg" viewBox="0 0 252.003 162.077"><path d="m126 76.061c-21.89 21.524-43.426 42.426-67 66-3.749 3.749-14.657 20.591-24 20-5.945-0.376-12.295-10.295-19-17-4.762-4.762-15.86-11.858-16-19-0.194-9.92 23.871-27.871 29-33 20.811-20.811 41.316-42.316 61-62 4.718-4.718 28.358-32.535 36-31 12.456 2.501 25.653 20.654 34 29 26.631 26.63 50.648 51.648 78 79 4.662 4.662 13.814 11.979 14 17 0.28 7.574-28.112 36.564-35 37-9.561 0.604-22.457-17.457-25-20-23.68-23.68-42.29-43.748-66-65.999z"/></svg>