<svg xmlns="http://www.w3.org/2000/svg" viewBox="0 0 252.003 162.077">
<g>
	<path d="M126.001,76.061c-21.89,21.524-43.426,42.426-67,66
c-3.749,3.749-14.657,20.591-24,20c-5.945-0.376-12.295-10.295-19-17c-4.762-4.762-15.86-11.858-16-19
c-0.194-9.92,23.871-27.871,29-33c20.811-20.811,41.316-42.316,61-62c4.718-4.718,28.358-32.535,36-31
c12.456,2.501,25.653,20.654,34,29c26.631,26.63,50.648,51.648,78,79c4.662,4.662,13.814,11.979,14,17
c0.28,7.574-28.112,36.564-35,37c-9.561,0.604-22.457-17.457-25-20C168.318,118.378,149.712,98.312,126.001,76.061z"/>
</g>
</svg>