<svg version="1.1" width="9.986px" height="10.005px" viewBox="0 0 9.986 10.005" enable-background="new 0 0 9.986 10.005" xml:space="preserve">
<path d="M0.239,0.593l0.413-0.413c0.049-0.023,0.134-0.054,0.246-0.095
	c0.278-0.098,0.557-0.089,0.844,0.019c0.181,0.053,0.489,0.292,0.916,0.718c0.044,0.044,0.332,0.332,0.88,0.88l1.445,1.445
	l1.423-1.423c0.938-0.938,1.439-1.423,1.503-1.468c0.484-0.324,0.952-0.342,1.419-0.054c0.098,0.062,0.184,0.138,0.256,0.211
	c0.404,0.404,0.502,0.87,0.3,1.386C9.85,1.908,9.805,2.007,9.749,2.097C9.705,2.16,9.22,2.663,8.281,3.601L6.859,5.023l1.445,1.445
	c1.014,1.014,1.544,1.615,1.598,1.795c0.104,0.283,0.111,0.562,0.018,0.844c-0.09,0.27-0.241,0.476-0.43,0.62
	C9.409,9.781,9.318,9.834,9.219,9.88c-0.152,0.081-0.34,0.125-0.547,0.117C8.462,10,8.278,9.96,8.125,9.88
	C7.964,9.808,7.39,9.269,6.402,8.282l-1.4-1.401L3.538,8.344L2.074,9.771L1.976,9.818c-0.558,0.304-1.086,0.241-1.583-0.211
	c-0.44-0.44-0.509-0.965-0.213-1.584l0.037-0.108l1.445-1.445l1.464-1.463L1.725,3.604C0.729,2.608,0.198,2.042,0.126,1.881
	C0.056,1.738,0.02,1.558,0.01,1.334C0.019,1.056,0.1,0.813,0.239,0.593"/>
</svg>