<svg viewBox="0 0 512 512" >
	<path d="M351.5 448.365h-192c-88.375 0-160-71.625-160-160v-64c0-35.75 12.125-68.5 32-95.125v-48.875c0-26.5 5.5-48 32-48 22.375 0 51.25 15.625 60.125 36.375 11.563-2.688 23.5-4.375 35.875-4.375h192c12.375 0 24.313 1.688 35.875 4.375 8.875-20.75 37.75-36.375 60.125-36.375 26.5 0 32 21.5 32 48v48.875c19.875 26.625 32 59.375 32 95.125v64c0 88.375-71.625 160-160 160zm0-224h-192c-53 0-96 43-96 96s43 96 96 96h192c53 0 96-43 96-96s-43-96-96-96zm0 145c-26.5 0-32-21.5-32-48v-17c0-26.5 5.5-48 32-48s32 21.5 32 48v17c0 26.5-5.5 48-32 48zm-192 0c-26.5 0-32-21.5-32-48v-17c0-26.5 5.5-48 32-48s32 21.5 32 48v17c0 26.5-5.5 48-32 48z"/>
</svg>