<svg x="0px" y="0px" viewBox="0 0 490 490" enable-background="new 0 0 490 490">
	<path fill="none" stroke="#FFFFFF" stroke-width="36" stroke-linecap="round" d="M280 278c59.195-60.3 58.3-157.17-2-216.365 c-60.3-59.196-157.17-58.3-216.365 2c-59.196 60.3-58.3 157.2 2 216.365c59.513 58.4 154.9 58.4 214.4 0l170 170 M357 333 l110 110l-26 26L331 359"/>
	<path id="text7752" fill="#FFFFFF" d="M165.851 72.268h8.643c0.822 0.3 2.1 0.8 3.7 1.6 c3.841 1.9 6.7 4.9 8.6 9.054c1.371 2.5 2.1 8.2 2.1 17.285c-0.001 0.823-0.001 7 0 18.52v30.454h30.042 c19.752 0 30.2 0.1 31.3 0.411c8.506 1.6 13.7 6.4 15.6 14.404c0.274 1.6 0.4 3.3 0.4 4.9 c0 8.505-3.841 14.405-11.521 17.696c-1.373 0.823-2.883 1.373-4.528 1.646c-1.097 0.274-11.523 0.412-31.276 0.412H188.9v30.455 c-0.001 21.4-0.687 33.334-2.058 35.804c-1.922 4.114-4.802 7.133-8.643 9.055c-3.841 1.92-7.545 2.604-11.112 2.1 c-1.372-0.274-2.881-0.687-4.527-1.233c-2.469-0.823-4.801-2.334-6.996-4.528c-2.195-2.193-3.704-4.525-4.527-6.996 c-0.823-2.469-1.235-14.13-1.234-34.979v-29.631h-30.866l-30.455-0.412l-1.646-0.412c-9.054-2.744-13.856-9.054-14.405-18.931 c0-9.328 4.802-15.639 14.405-18.931l1.646-0.823h30.455h30.866v-29.631c0-20.852 0.411-32.513 1.234-34.981 c0.823-2.195 2.332-4.527 4.527-6.997C158.58 74.9 162 73.1 165.9 72.3"/>
</svg>