<svg viewBox="28.856 0.006 61.146 62">
<path d="M68.85,0.138c-2.576,1.655-4.928,3.535-9.799,2.895c3.523,3.115,7.24,8.678,4.898,15.365c-1.742,4.979-8.548,6.794-8.461,11.134c0.066,3.392,7.287,7.101,9.129,9.353c1.734,2.121,3.055,5.003,2.673,8.907c-1.343,13.761-24.934,18.122-34.738,10.466c-5.497-4.291-4.521-12.788,0.668-16.924c3.954-3.15,10.188-4.119,16.702-4.676c-0.993-1.506-3.137-5.647-1.336-8.685c-9.557,1.134-15.982-4.632-16.033-12.47c-0.06-9.171,7.63-14.659,17.146-15.359c5.898-0.434,12.688,0.323,19.15,0V0.138z M47.916,25.747c5.408,1.451,9.478-2.828,9.575-7.793c0.156-7.877-4.531-16.102-11.579-14.919C34.839,4.891,40.552,23.77,47.916,25.747L47.916,25.747z M37.674,43.115c-1.611,1.768-2.542,5.742-1.559,8.463c2.736,7.574,19.059,9.367,24.049,3.34c1.209-1.459,2.488-4.49,1.336-7.793c-0.709-2.039-3.402-4.357-3.785-4.678c-2.394-1.995-4.092-3.559-7.793-3.34C43.6,39.479,39.648,40.949,37.674,43.115L37.674,43.115z"/>
<path d="M76.865,17.729h4.23v8.685h8.906v4.454h-8.685c-0.519,2.451-0.074,5.863-0.224,8.685h-4.23v-8.685h-8.906v-4.454h8.906C76.865,23.521,76.865,20.625,76.865,17.729L76.865,17.729z"/>
</svg>