<svg viewBox="16.158 10.316 33.547 32.001">
	<path d="M27.632 20.61l-10.579 1.173c-.383.043-.72.298-.846.687-.125.389 0 .792.283 1 3.1 2.9 7.9 7.2 7.9 7.166-.004 0-1.299 6.254-2.158 10.427-.071.378.062.778.394 1.017.328.24.748.244 1.082.056 3.704-2.103 9.249-5.269 9.249-5.269l9.248 5.272c.337.185.761.181 1.086-.06.33-.238.467-.639.393-1.017l-2.15-10.427 7.869-7.163c.283-.262.409-.666.283-1.051s-.463-.64-.844-.683c-4.234-.475-10.583-1.177-10.583-1.177l-4.384-9.702c-.166-.349-.511-.592-.918-.592-.405 0-.752.247-.909.592l-4.387 9.703z"/>
</svg>