<svg height="512" viewBox="0 0 512 512" width="512" xmlns="http://www.w3.org/2000/svg"><path d="M511.5 113.125c-18.875 8.375-39.125 14-60.375 16.563 21.75-13 38.375-33.563 46.25-58.125-20.313 12.063-42.813 20.813-66.75 25.5-19.125-20.438-46.437-33.188-76.625-33.188-58 0-105.063 47.063-105.063 105.063 0 8.25.938 16.25 2.719 23.938-87.313-4.375-164.719-46.188-216.5-109.75-9.063 15.5-14.25 33.563-14.25 52.813 0 36.438 18.563 68.563 46.75 87.438-17.219-.563-33.438-5.313-47.594-13.125v1.313c0 50.875 36.219 93.313 84.25 103-8.813 2.375-18.094 3.688-27.656 3.688-6.781 0-13.344-.688-19.781-1.938 13.375 41.75 52.188 72.125 98.125 73-35.938 28.126-81.219 44.938-130.438 44.938-8.5 0-16.844-.5-25.063-1.438 46.47 29.748 101.689 47.185 161.032 47.185 193.219 0 298.844-160.063 298.844-298.875 0-4.563-.125-9.125-.25-13.625 20.5-14.812 38.25-33.312 52.375-54.375z"/></svg>