<svg style="display: none;">
  <symbol viewBox="0 0 512 512" id="icon-github">
    <title>github</title>
    <path d="M351.5 448.365h-192c-88.375 0-160-71.625-160-160v-64c0-35.75 12.125-68.5 32-95.125v-48.875c0-26.5 5.5-48 32-48 22.375 0 51.25 15.625 60.125 36.375 11.563-2.688 23.5-4.375 35.875-4.375h192c12.375 0 24.313 1.688 35.875 4.375 8.875-20.75 37.75-36.375 60.125-36.375 26.5 0 32 21.5 32 48v48.875c19.875 26.625 32 59.375 32 95.125v64c0 88.375-71.625 160-160 160zm0-224h-192c-53 0-96 43-96 96s43 96 96 96h192c53 0 96-43 96-96s-43-96-96-96zm0 145c-26.5 0-32-21.5-32-48v-17c0-26.5 5.5-48 32-48s32 21.5 32 48v17c0 26.5-5.5 48-32 48zm-192 0c-26.5 0-32-21.5-32-48v-17c0-26.5 5.5-48 32-48s32 21.5 32 48v17c0 26.5-5.5 48-32 48z"
    />
  </symbol>
  <symbol viewBox="0 0 512 512" id="icon-linkedin">
    <title>linkedin</title>
    <path d="M409.391 511.359v-194.156s-5.75-51.938-56-51.938c-50.219 0-59.406 49.375-59.406 49.375v196.719h-103.5l1.688-320.719h100.125l-.813 40.313s20.876-52.688 99.531-52.688c78.625 0 114.25 45.188 120.875 129.688v203.406h-102.5zm-345.844-366.281c-35.563 0-64.438-25.438-64.438-56.875s28.875-56.938 64.438-56.938 64.438 25.5 64.438 56.938-28.876 56.875-64.438 56.875zm63.875 366.656h-127.25v-320.281l127.25-.813v321.094z"
    />
  </symbol>
  <symbol viewBox="16.158 10.316 33.547 32.001" id="icon-star">
    <title>star</title>
    <path d="M27.632 20.61l-10.579 1.173c-.383.043-.72.298-.846.687-.125.389 0 .792.283 1.048 3.144 2.871 7.871 7.166 7.871 7.166-.004 0-1.299 6.254-2.158 10.427-.071.378.062.778.394 1.017.328.24.748.244 1.082.056 3.704-2.103 9.249-5.269 9.249-5.269l9.248 5.272c.337.185.761.181 1.086-.06.33-.238.467-.639.393-1.017l-2.15-10.427 7.869-7.163c.283-.262.409-.666.283-1.051s-.463-.64-.844-.683c-4.234-.475-10.583-1.177-10.583-1.177l-4.384-9.702c-.166-.349-.511-.592-.918-.592-.405 0-.752.247-.909.592l-4.387 9.703z"
    />
  </symbol>
  <symbol viewBox="0 0 512 512" id="icon-twitter">
    <title>twitter</title>
    <path d="M511.5 113.125c-18.875 8.375-39.125 14-60.375 16.563 21.75-13 38.375-33.563 46.25-58.125-20.313 12.063-42.813 20.813-66.75 25.5-19.125-20.438-46.437-33.188-76.625-33.188-58 0-105.063 47.063-105.063 105.063 0 8.25.938 16.25 2.719 23.938-87.313-4.375-164.719-46.188-216.5-109.75-9.063 15.5-14.25 33.563-14.25 52.813 0 36.438 18.563 68.563 46.75 87.438-17.219-.563-33.438-5.313-47.594-13.125v1.313c0 50.875 36.219 93.313 84.25 103-8.813 2.375-18.094 3.688-27.656 3.688-6.781 0-13.344-.688-19.781-1.938 13.375 41.75 52.188 72.125 98.125 73-35.938 28.126-81.219 44.938-130.438 44.938-8.5 0-16.844-.5-25.063-1.438 46.47 29.748 101.689 47.185 161.032 47.185 193.219 0 298.844-160.063 298.844-298.875 0-4.563-.125-9.125-.25-13.625 20.5-14.812 38.25-33.312 52.375-54.375z"
    />
  </symbol>
</svg>