<svg style="display: none;"><symbol viewBox="0 0 252.003 162.077" id="icon-chevron"><title>chevron</title><path d="m126 76.061c-21.89 21.524-43.426 42.426-67 66-3.749 3.749-14.657 20.591-24 20-5.945-0.376-12.295-10.295-19-17-4.762-4.762-15.86-11.858-16-19-0.194-9.92 23.871-27.871 29-33 20.811-20.811 41.316-42.316 61-62 4.718-4.718 28.358-32.535 36-31 12.456 2.501 25.653 20.654 34 29 26.631 26.63 50.648 51.648 78 79 4.662 4.662 13.814 11.979 14 17 0.28 7.574-28.112 36.564-35 37-9.561 0.604-22.457-17.457-25-20-23.68-23.68-42.29-43.748-66-65.999z"/></symbol><symbol viewBox="0 0 9.986 10.005" id="icon-close"><title>close</title> <path d="M0.239,0.593l0.413-0.413c0.049-0.023,0.134-0.054,0.246-0.095 c0.278-0.098,0.557-0.089,0.844,0.019c0.181,0.053,0.489,0.292,0.916,0.718c0.044,0.044,0.332,0.332,0.88,0.88l1.445,1.445 l1.423-1.423c0.938-0.938,1.439-1.423,1.503-1.468c0.484-0.324,0.952-0.342,1.419-0.054c0.098,0.062,0.184,0.138,0.256,0.211 c0.404,0.404,0.502,0.87,0.3,1.386C9.85,1.908,9.805,2.007,9.749,2.097C9.705,2.16,9.22,2.663,8.281,3.601L6.859,5.023l1.445,1.445 c1.014,1.014,1.544,1.615,1.598,1.795c0.104,0.283,0.111,0.562,0.018,0.844c-0.09,0.27-0.241,0.476-0.43,0.62 C9.409,9.781,9.318,9.834,9.219,9.88c-0.152,0.081-0.34,0.125-0.547,0.117C8.462,10,8.278,9.96,8.125,9.88 C7.964,9.808,7.39,9.269,6.402,8.282l-1.4-1.401L3.538,8.344L2.074,9.771L1.976,9.818c-0.558,0.304-1.086,0.241-1.583-0.211 c-0.44-0.44-0.509-0.965-0.213-1.584l0.037-0.108l1.445-1.445l1.464-1.463L1.725,3.604C0.729,2.608,0.198,2.042,0.126,1.881 C0.056,1.738,0.02,1.558,0.01,1.334C0.019,1.056,0.1,0.813,0.239,0.593"/> </symbol><symbol viewBox="0 0 512 512" id="icon-github"><title>github</title> <path d="M351.5 448.365h-192c-88.375 0-160-71.625-160-160v-64c0-35.75 12.125-68.5 32-95.125v-48.875c0-26.5 5.5-48 32-48 22.375 0 51.25 15.625 60.125 36.375 11.563-2.688 23.5-4.375 35.875-4.375h192c12.375 0 24.313 1.688 35.875 4.375 8.875-20.75 37.75-36.375 60.125-36.375 26.5 0 32 21.5 32 48v48.875c19.875 26.625 32 59.375 32 95.125v64c0 88.375-71.625 160-160 160zm0-224h-192c-53 0-96 43-96 96s43 96 96 96h192c53 0 96-43 96-96s-43-96-96-96zm0 145c-26.5 0-32-21.5-32-48v-17c0-26.5 5.5-48 32-48s32 21.5 32 48v17c0 26.5-5.5 48-32 48zm-192 0c-26.5 0-32-21.5-32-48v-17c0-26.5 5.5-48 32-48s32 21.5 32 48v17c0 26.5-5.5 48-32 48z"/> </symbol><symbol viewBox="0 0 490 490" id="icon-glass"><title>glass</title> <path fill="none" stroke="#FFFFFF" stroke-width="36" stroke-linecap="round" d="M280 278c59.195-60.3 58.3-157.17-2-216.365 c-60.3-59.196-157.17-58.3-216.365 2c-59.196 60.3-58.3 157.2 2 216.365c59.513 58.4 154.9 58.4 214.4 0l170 170 M357 333 l110 110l-26 26L331 359"/> <path id="svgstore108392af94531da7e84dacab419ff08ctext7752" fill="#FFFFFF" d="M165.851 72.268h8.643c0.822 0.3 2.1 0.8 3.7 1.6 c3.841 1.9 6.7 4.9 8.6 9.054c1.371 2.5 2.1 8.2 2.1 17.285c-0.001 0.823-0.001 7 0 18.52v30.454h30.042 c19.752 0 30.2 0.1 31.3 0.411c8.506 1.6 13.7 6.4 15.6 14.404c0.274 1.6 0.4 3.3 0.4 4.9 c0 8.505-3.841 14.405-11.521 17.696c-1.373 0.823-2.883 1.373-4.528 1.646c-1.097 0.274-11.523 0.412-31.276 0.412H188.9v30.455 c-0.001 21.4-0.687 33.334-2.058 35.804c-1.922 4.114-4.802 7.133-8.643 9.055c-3.841 1.92-7.545 2.604-11.112 2.1 c-1.372-0.274-2.881-0.687-4.527-1.233c-2.469-0.823-4.801-2.334-6.996-4.528c-2.195-2.193-3.704-4.525-4.527-6.996 c-0.823-2.469-1.235-14.13-1.234-34.979v-29.631h-30.866l-30.455-0.412l-1.646-0.412c-9.054-2.744-13.856-9.054-14.405-18.931 c0-9.328 4.802-15.639 14.405-18.931l1.646-0.823h30.455h30.866v-29.631c0-20.852 0.411-32.513 1.234-34.981 c0.823-2.195 2.332-4.527 4.527-6.997C158.58 74.9 162 73.1 165.9 72.3"/> </symbol><symbol viewBox="28.856 0.006 61.146 62" id="icon-googleplus"><title>googleplus</title> <path d="M68.85,0.138c-2.576,1.655-4.928,3.535-9.799,2.895c3.523,3.115,7.24,8.678,4.898,15.365c-1.742,4.979-8.548,6.794-8.461,11.134c0.066,3.392,7.287,7.101,9.129,9.353c1.734,2.121,3.055,5.003,2.673,8.907c-1.343,13.761-24.934,18.122-34.738,10.466c-5.497-4.291-4.521-12.788,0.668-16.924c3.954-3.15,10.188-4.119,16.702-4.676c-0.993-1.506-3.137-5.647-1.336-8.685c-9.557,1.134-15.982-4.632-16.033-12.47c-0.06-9.171,7.63-14.659,17.146-15.359c5.898-0.434,12.688,0.323,19.15,0V0.138z M47.916,25.747c5.408,1.451,9.478-2.828,9.575-7.793c0.156-7.877-4.531-16.102-11.579-14.919C34.839,4.891,40.552,23.77,47.916,25.747L47.916,25.747z M37.674,43.115c-1.611,1.768-2.542,5.742-1.559,8.463c2.736,7.574,19.059,9.367,24.049,3.34c1.209-1.459,2.488-4.49,1.336-7.793c-0.709-2.039-3.402-4.357-3.785-4.678c-2.394-1.995-4.092-3.559-7.793-3.34C43.6,39.479,39.648,40.949,37.674,43.115L37.674,43.115z"/> <path d="M76.865,17.729h4.23v8.685h8.906v4.454h-8.685c-0.519,2.451-0.074,5.863-0.224,8.685h-4.23v-8.685h-8.906v-4.454h8.906C76.865,23.521,76.865,20.625,76.865,17.729L76.865,17.729z"/> </symbol><symbol viewBox="0 0 512 512" id="icon-linkedin"><title>linkedin</title> <path d="M409.391 511.359v-194.156s-5.75-51.938-56-51.938c-50.219 0-59.406 49.375-59.406 49.375v196.719h-103.5l1.688-320.719h100.125l-.813 40.313s20.876-52.688 99.531-52.688c78.625 0 114.25 45.188 120.875 129.688v203.406h-102.5zm-345.844-366.281c-35.563 0-64.438-25.438-64.438-56.875s28.875-56.938 64.438-56.938 64.438 25.5 64.438 56.938-28.876 56.875-64.438 56.875zm63.875 366.656h-127.25v-320.281l127.25-.813v321.094z"/> </symbol><symbol viewBox="16.158 10.316 33.547 32.001" id="icon-star"><title>star</title> <path d="M27.632 20.61l-10.579 1.173c-.383.043-.72.298-.846.687-.125.389 0 .792.283 1 3.1 2.9 7.9 7.2 7.9 7.166-.004 0-1.299 6.254-2.158 10.427-.071.378.062.778.394 1.017.328.24.748.244 1.082.056 3.704-2.103 9.249-5.269 9.249-5.269l9.248 5.272c.337.185.761.181 1.086-.06.33-.238.467-.639.393-1.017l-2.15-10.427 7.869-7.163c.283-.262.409-.666.283-1.051s-.463-.64-.844-.683c-4.234-.475-10.583-1.177-10.583-1.177l-4.384-9.702c-.166-.349-.511-.592-.918-.592-.405 0-.752.247-.909.592l-4.387 9.703z"/> </symbol><symbol viewBox="0 0 512 512" id="icon-twitter"><title>twitter</title> <path d="M511.5 113.125c-18.875 8.375-39.125 14-60.375 16.563 21.75-13 38.375-33.563 46.25-58.125-20.313 12.063-42.813 20.813-66.75 25.5-19.125-20.438-46.437-33.188-76.625-33.188-58 0-105.063 47.063-105.063 105.063 0 8.25.938 16.25 2.719 23.938-87.313-4.375-164.719-46.188-216.5-109.75-9.063 15.5-14.25 33.563-14.25 52.813 0 36.438 18.563 68.563 46.75 87.438-17.219-.563-33.438-5.313-47.594-13.125v1.313c0 50.875 36.219 93.313 84.25 103-8.813 2.375-18.094 3.688-27.656 3.688-6.781 0-13.344-.688-19.781-1.938 13.375 41.75 52.188 72.125 98.125 73-35.938 28.126-81.219 44.938-130.438 44.938-8.5 0-16.844-.5-25.063-1.438 46.47 29.748 101.689 47.185 161.032 47.185 193.219 0 298.844-160.063 298.844-298.875 0-4.563-.125-9.125-.25-13.625 20.5-14.812 38.25-33.312 52.375-54.375z"/> </symbol></svg>