<?xml version="1.0" encoding="iso-8859-1"?>
<!-- Generator: Adobe Illustrator 22.1.0, SVG Export Plug-In . SVG Version: 6.00 Build 0)  -->
<svg xmlns="http://www.w3.org/2000/svg" xmlns:xlink="http://www.w3.org/1999/xlink" version="1.1" id="Layer_1" x="0px" y="0px" viewBox="0 0 100 100" style="enable-background:new 0 0 100 100;" xml:space="preserve" width="500px" height="500px">
<g>
	<g>
		<circle style="fill:#78A0CF;" cx="13" cy="29" r="2"/>
	</g>
	<g>
		<circle style="fill:#F1BC19;" cx="77" cy="13" r="1"/>
	</g>
	<g>
		<circle style="fill:#CEE1F4;" cx="50" cy="50" r="37"/>
	</g>
	<g>
		<circle style="fill:#F1BC19;" cx="83" cy="15" r="4"/>
	</g>
	<g>
		<circle style="fill:#78A0CF;" cx="87" cy="24" r="2"/>
	</g>
	<g>
		<circle style="fill:#FBCD59;" cx="81" cy="76" r="2"/>
	</g>
	<g>
		<circle style="fill:#FBCD59;" cx="15" cy="63" r="4"/>
	</g>
	<g>
		<circle style="fill:#78A0CF;" cx="25" cy="87" r="2"/>
	</g>
	<g>
		<circle style="fill:#FFFFFF;" cx="18.5" cy="53.5" r="2.5"/>
	</g>
	<g>
		<circle style="fill:#F1BC19;" cx="21" cy="67" r="1"/>
	</g>
	<g>
		<circle style="fill:#FFFFFF;" cx="80" cy="34" r="1"/>
	</g>
</g>
<g>
	<g>
		<path style="fill:#FDE751;" d="M50.5,45.5h6v10.026L46.291,73.209l1.391,0.803c0.763,0.073,1.536,0.113,2.319,0.113    c13.393,0,24.25-10.857,24.25-24.25c0-4.944-1.483-9.541-4.024-13.375H50.5V45.5z"/>
		<path style="fill:#472B29;" d="M50,74.625c-0.76,0-1.556-0.039-2.366-0.115l-0.203-0.065l-1.824-1.053L56,55.393V46h-6V36h20.495    l0.148,0.224c2.687,4.055,4.107,8.775,4.107,13.651C74.75,63.522,63.647,74.625,50,74.625z M47.836,73.524    c0.741,0.066,1.469,0.101,2.164,0.101c13.096,0,23.75-10.654,23.75-23.75c0-4.589-1.311-9.035-3.794-12.875H51v8h6v10.66    L46.974,73.026L47.836,73.524z"/>
	</g>
	<g>
		<path style="fill:#EA5167;" d="M50,25.625c-13.393,0-24.25,10.857-24.25,24.25c0,1.937,0.234,3.819,0.663,5.625H49.5v-14h23.264    C69.354,32.234,60.449,25.625,50,25.625z"/>
		<path style="fill:#472B29;" d="M50,56H26.018l-0.091-0.385c-0.449-1.889-0.677-3.82-0.677-5.74c0-13.647,11.103-24.75,24.75-24.75    c10.33,0,19.667,6.511,23.233,16.202L73.48,42H50V56z M26.812,55H49V41h23.035C68.436,32.073,59.672,26.125,50,26.125    c-13.096,0-23.75,10.654-23.75,23.75C26.25,51.588,26.439,53.31,26.812,55z"/>
	</g>
	<g>
		<g>
			<path style="fill:#67BA8C;" d="M53.654,73.851c0.008-0.001,0.017-0.002,0.025-0.003C53.671,73.849,53.663,73.849,53.654,73.851z"/>
			<polygon style="fill:#472B29;" points="53.738,74.344 53.596,73.354 53.621,73.352    "/>
		</g>
		<g>
			<path style="fill:#67BA8C;" d="M47.681,74.012l-1.391-0.803L56.5,55.526V53.5H42.3L31.296,34.44     c-3.464,4.193-5.546,9.571-5.546,15.435c0,13.001,10.231,23.61,23.081,24.22C48.445,74.076,48.062,74.048,47.681,74.012z"/>
			<path style="fill:#472B29;" d="M48.807,74.595C35.597,73.968,25.25,63.109,25.25,49.875c0-5.74,2.01-11.335,5.661-15.753     l0.458-0.555L42.588,53H57v2.66L46.974,73.026l0.863,0.498c0.338,0.03,0.678,0.055,1.02,0.072L48.807,74.595z M31.229,35.324     c-3.216,4.146-4.979,9.284-4.979,14.551c0,11.624,8.319,21.338,19.447,23.361L56,55.393V54H42.011L31.229,35.324z"/>
		</g>
		<g>
			<path style="fill:#67BA8C;" d="M51.654,74.063c0.137-0.009,0.273-0.02,0.409-0.031C51.927,74.043,51.79,74.053,51.654,74.063z"/>
			<polygon style="fill:#472B29;" points="51.689,74.562 51.618,73.563 52.02,73.533 52.105,74.529    "/>
		</g>
		<g>
			<path style="fill:#67BA8C;" d="M55.269,73.544c0.124-0.028,0.247-0.056,0.37-0.085C55.516,73.488,55.393,73.517,55.269,73.544z"/>
			<polygon style="fill:#472B29;" points="55.376,74.032 55.161,73.056 55.523,72.973 55.755,73.945    "/>
		</g>
		<g>
			<path style="fill:#67BA8C;" d="M59.015,72.387c-0.105,0.042-0.211,0.084-0.317,0.125C58.803,72.471,58.909,72.429,59.015,72.387z     "/>
			<polygon style="fill:#472B29;" points="58.877,72.979 58.517,72.046 58.83,71.922 59.203,72.85 59.2,72.852    "/>
		</g>
		<g>
			<path style="fill:#67BA8C;" d="M62.16,70.853c-0.09,0.053-0.181,0.105-0.272,0.156C61.979,70.958,62.069,70.905,62.16,70.853z"/>
			<polygon style="fill:#472B29;" points="62.131,71.445 61.644,70.572 61.908,70.421 62.412,71.284    "/>
		</g>
		<g>
			<path style="fill:#67BA8C;" d="M60.466,71.755c-0.001,0-0.002,0.001-0.003,0.001C60.464,71.756,60.465,71.755,60.466,71.755z"/>
			<polygon style="fill:#472B29;" points="60.463,72.256 60.463,71.756 60.112,71.401 60.463,71.752 60.463,71.256 60.463,71.752      60.463,71.256 60.463,71.752 60.819,72.108 60.673,72.255    "/>
		</g>
		<g>
			<path style="fill:#67BA8C;" d="M57.179,73.044c-0.003,0.001-0.006,0.002-0.009,0.003C57.173,73.046,57.176,73.045,57.179,73.044z     "/>
			<polygon style="fill:#472B29;" points="57.328,73.521 57.012,72.572 57.337,73.519    "/>
		</g>
		<g>
			<polygon style="fill:#67BA8C;" points="63.496,70.024 63.5,70.021 63.5,70.021    "/>
			<polygon style="fill:#472B29;" points="63.773,70.439 63.218,69.607 63.344,69.523 63.5,69.521 63.5,70.021    "/>
		</g>
	</g>
	<g>
		<circle style="fill:#48BED8;" cx="50" cy="49.875" r="8.5"/>
		<path style="fill:#472B29;" d="M50,58.875c-4.962,0-9-4.037-9-9s4.038-9,9-9s9,4.037,9,9S54.962,58.875,50,58.875z M50,41.875    c-4.411,0-8,3.589-8,8s3.589,8,8,8s8-3.589,8-8S54.411,41.875,50,41.875z"/>
	</g>
</g>
<g>
	<path style="fill:#472B29;" d="M50,74.825c-13.757,0-24.95-11.192-24.95-24.95S36.243,24.925,50,24.925s24.95,11.192,24.95,24.95   S63.757,74.825,50,74.825z M50,26.325c-12.985,0-23.55,10.564-23.55,23.55S37.015,73.425,50,73.425s23.55-10.564,23.55-23.55   S62.985,26.325,50,26.325z"/>
</g>
<g>
	<path style="fill:#472B29;" d="M65.195,37.015c-0.137,0-0.273-0.056-0.373-0.166c-0.2-0.224-0.405-0.443-0.615-0.656   c-0.816-0.829-1.712-1.59-2.664-2.259c-0.226-0.159-0.28-0.472-0.121-0.697s0.47-0.28,0.697-0.121c1,0.705,1.942,1.504,2.8,2.376   c0.221,0.225,0.437,0.454,0.647,0.689c0.184,0.206,0.167,0.522-0.039,0.706C65.434,36.973,65.314,37.015,65.195,37.015z"/>
</g>
<g>
	<path style="fill:#472B29;" d="M49.964,70.772c-2.423,0-4.851-0.427-7.191-1.284c-5.228-1.915-9.392-5.749-11.724-10.796   c-2.332-5.047-2.552-10.702-0.621-15.925c1.931-5.222,5.782-9.386,10.843-11.724c5.423-2.505,11.671-2.572,17.14-0.182   c0.413,0.18,0.821,0.374,1.222,0.581c0.245,0.127,0.341,0.429,0.215,0.674c-0.127,0.245-0.426,0.342-0.674,0.215   c-0.382-0.197-0.77-0.382-1.163-0.554c-5.208-2.274-11.155-2.213-16.321,0.174c-4.819,2.227-8.486,6.19-10.324,11.162   c-1.838,4.972-1.628,10.354,0.591,15.158c2.219,4.805,6.183,8.454,11.159,10.276c4.977,1.823,10.372,1.602,15.193-0.626   c4.819-2.227,8.486-6.19,10.324-11.162c1.838-4.972,1.628-10.354-0.591-15.158c-0.417-0.904-0.905-1.78-1.448-2.605   c-0.152-0.23-0.088-0.541,0.143-0.693c0.231-0.15,0.541-0.087,0.692,0.143c0.571,0.867,1.083,1.787,1.521,2.736   c2.332,5.047,2.552,10.702,0.621,15.925c-1.931,5.222-5.782,9.386-10.843,11.724C55.933,70.122,52.953,70.771,49.964,70.772z"/>
</g>
</svg>
